<svg width="24" height="24" viewBox="0 0 24 24" fill="none" xmlns="http://www.w3.org/2000/svg">
    <path fill-rule="evenodd" clip-rule="evenodd"
        d="M9.02975 3.13914C9.50055 2.42747 10.2931 2 11.1419 2H12.8581C13.7069 2 14.4995 2.42747 14.9703 3.13914L16.0628 4.7907H20.3077C20.69 4.7907 21 5.10306 21 5.48837C21 5.87369 20.69 6.18605 20.3077 6.18605H3.69231C3.30996 6.18605 3 5.87369 3 5.48837C3 5.10306 3.30996 4.7907 3.69231 4.7907H7.93718L9.02975 3.13914ZM9.60128 4.7907H14.3987L13.8182 3.91314C13.6042 3.58965 13.2439 3.39535 12.8581 3.39535H11.1419C10.7561 3.39535 10.3958 3.58965 10.1818 3.91314L9.60128 4.7907ZM5.53846 7.5814C5.92081 7.5814 6.23077 7.89375 6.23077 8.27907V17.5814C6.23077 19.2511 7.57392 20.6047 9.23077 20.6047H14.7692C16.4261 20.6047 17.7692 19.2511 17.7692 17.5814V8.27907C17.7692 7.89375 18.0792 7.5814 18.4615 7.5814C18.8439 7.5814 19.1538 7.89375 19.1538 8.27907V17.5814C19.1538 20.0217 17.1908 22 14.7692 22H9.23077C6.80921 22 4.84615 20.0217 4.84615 17.5814V8.27907C4.84615 7.89375 5.15611 7.5814 5.53846 7.5814ZM10.1538 10.3721C10.5362 10.3721 10.8462 10.6845 10.8462 11.0698V16.6512C10.8462 17.0365 10.5362 17.3488 10.1538 17.3488C9.7715 17.3488 9.46154 17.0365 9.46154 16.6512L9.46154 11.0698C9.46154 10.6845 9.7715 10.3721 10.1538 10.3721ZM13.8462 10.3721C14.2285 10.3721 14.5385 10.6845 14.5385 11.0698V16.6512C14.5385 17.0365 14.2285 17.3488 13.8462 17.3488C13.4638 17.3488 13.1538 17.0365 13.1538 16.6512V11.0698C13.1538 10.6845 13.4638 10.3721 13.8462 10.3721Z"
        fill="#80869D" />
</svg>