<svg width="24" height="24" viewBox="0 0 24 24" fill="none" xmlns="http://www.w3.org/2000/svg">
    <path fill-rule="evenodd" clip-rule="evenodd"
        d="M7.92347 3.87692C7.92347 2.24182 9.31408 1 10.9232 1H13.0768C14.6859 1 16.0765 2.24182 16.0765 3.87692C16.0765 4.51843 16.7628 4.92627 17.3262 4.61957L17.4407 4.55725C18.8472 3.79151 20.6674 4.22791 21.5087 5.60186L22.5855 7.36056C23.4462 8.76627 22.9131 10.5396 21.4802 11.3197C20.9412 11.6131 20.9412 12.3869 21.4802 12.6803C22.9131 13.4604 23.4462 15.2337 22.5855 16.6394L21.5087 18.3981C20.6674 19.7721 18.8472 20.2085 17.4407 19.4428L17.3262 19.3804C16.7628 19.0737 16.0765 19.4816 16.0765 20.1231C16.0765 21.7582 14.6859 23 13.0768 23H10.9232C9.31408 23 7.92347 21.7582 7.92347 20.1231C7.92347 19.4816 7.23717 19.0737 6.6738 19.3804L6.26928 18.6373L6.67379 19.3804L6.55931 19.4428L6.1548 18.6996L6.55931 19.4428C5.15277 20.2085 3.33258 19.7721 2.49133 18.3982L1.41451 16.6395C0.553817 15.2337 1.08689 13.4604 2.51982 12.6803C3.05877 12.3869 3.05877 11.6131 2.51983 11.3197C1.08689 10.5396 0.553818 8.76626 1.41451 7.36054L2.49133 5.60185C3.33258 4.22789 5.15277 3.7915 6.55931 4.55723L6.6738 4.61956C7.23717 4.92626 7.92347 4.51842 7.92347 3.87692ZM10.9232 2.69231C10.1534 2.69231 9.61561 3.2689 9.61561 3.87692C9.61561 5.80235 7.55571 7.02647 5.86477 6.10591L5.75029 6.04359C5.09668 5.68776 4.28259 5.91695 3.93441 6.4856L2.85759 8.24429C2.52886 8.78119 2.70165 9.49187 3.32885 9.83332C5.04529 10.7678 5.04528 13.2322 3.32885 14.1667C2.70164 14.5081 2.52886 15.2188 2.85759 15.7557L3.93441 17.5144C4.28258 18.0831 5.09668 18.3122 5.75029 17.9564L6.13761 18.668L5.75029 17.9564L5.86477 17.8941C7.5557 16.9735 9.61561 18.1977 9.61561 20.1231C9.61561 20.7311 10.1534 21.3077 10.9232 21.3077H13.0768C13.8466 21.3077 14.3844 20.7311 14.3844 20.1231C14.3844 18.1976 16.4443 16.9735 18.1352 17.8941L18.2497 17.9564C18.9033 18.3122 19.7174 18.083 20.0656 17.5144L21.1424 15.7557C21.4711 15.2188 21.2984 14.5081 20.6711 14.1667C18.9547 13.2322 18.9547 10.7678 20.6711 9.83334C21.2984 9.49188 21.4711 8.7812 21.1424 8.24431L20.0656 6.48561C19.7174 5.91696 18.9033 5.68777 18.2497 6.0436L18.1352 6.10592C16.4443 7.02649 14.3844 5.80235 14.3844 3.87692C14.3844 3.2689 13.8466 2.69231 13.0768 2.69231H10.9232ZM12 9.46154C10.5982 9.46154 9.4618 10.598 9.4618 12C9.4618 13.402 10.5982 14.5385 12 14.5385C13.4018 14.5385 14.5382 13.402 14.5382 12C14.5382 10.598 13.4018 9.46154 12 9.46154ZM7.76966 12C7.76966 9.66341 9.66365 7.76923 12 7.76923C14.3364 7.76923 16.2304 9.66341 16.2304 12C16.2304 14.3366 14.3364 16.2308 12 16.2308C9.66365 16.2308 7.76966 14.3366 7.76966 12Z"
        fill="#80869D" />
</svg>