<svg width="24" height="24" viewBox="0 0 24 24" fill="none" xmlns="http://www.w3.org/2000/svg">
    <path opacity="0.4"
        d="M18.6 1H5.4C2.96995 1 1 2.96995 1 5.4V18.6C1 20.6507 2.40285 22.3737 4.30122 22.8617C4.65243 22.952 5.02061 23 5.4 23H18.6C18.9794 23 19.3476 22.952 19.6988 22.8617C21.5972 22.3737 23 20.6507 23 18.6V5.4C23 2.96995 21.0301 1 18.6 1Z"
        fill="#80869D" />
    <circle cx="3.3" cy="3.3" r="3.3" transform="matrix(1 0 0 -1 8.70001 10.6)" fill="#80869D" />
    <path
        d="M5.99905 19H18.0009C18.3459 19 18.6807 18.9563 19 18.8743C18.9329 15.0663 15.8246 12 12 12C8.1754 12 5.06708 15.0663 5 18.8743C5.31934 18.9563 5.6541 19 5.99905 19Z"
        fill="#80869D" />
</svg>